<?xml version="1.0" standalone="no"?>
<!DOCTYPE svg PUBLIC "-//W3C//DTD SVG 20010904//EN"
 "http://www.w3.org/TR/2001/REC-SVG-20010904/DTD/svg10.dtd">
<svg version="1.0" xmlns="http://www.w3.org/2000/svg"
 width="520.000000pt" height="520.000000pt" viewBox="0 0 520.000000 520.000000"
 preserveAspectRatio="xMidYMid meet">
<metadata>
Created by potrace 1.11, written by Peter Selinger 2001-2013
</metadata>
<g transform="translate(0.000000,520.000000) scale(0.100000,-0.100000)"
fill="#000000" stroke="none">
<path d="M2768 4603 c-15 -4 -18 -16 -18 -62 0 -226 187 -411 415 -411 62 0
63 0 67 30 7 49 -10 150 -37 207 -33 73 -115 157 -189 193 -78 38 -184 57
-238 43z"/>
<path d="M3855 4475 c-223 -49 -392 -196 -473 -413 -31 -82 -45 -298 -21 -313
22 -14 123 -10 207 7 295 59 512 324 512 625 0 111 1 109 -89 108 -42 0 -103
-7 -136 -14z"/>
<path d="M2070 3560 c-172 -11 -281 -56 -399 -166 -70 -64 -129 -153 -161
-243 -22 -59 -25 -62 -33 -40 -45 117 -84 178 -161 254 -136 135 -266 184
-485 185 l-114 0 7 -622 c8 -686 10 -707 70 -831 59 -122 151 -216 276 -281
132 -70 55 -66 1417 -66 1065 0 1237 2 1288 15 234 60 419 257 460 493 17 94
21 785 5 906 -11 92 -67 204 -134 272 -32 31 -82 66 -131 90 l-79 39 -532 3
c-518 3 -534 2 -595 -18 -161 -55 -281 -183 -324 -347 -10 -39 -15 -107 -15
-216 0 -181 -14 -263 -65 -372 -84 -181 -234 -315 -427 -380 -72 -25 -102 -29
-234 -33 l-150 -4 -27 32 c-35 41 -34 74 1 109 27 28 31 28 162 33 162 6 243
30 345 103 106 75 176 179 210 310 17 65 20 340 8 628 l-6 157 -31 -2 c-17 0
-83 -4 -146 -8z m1062 -400 c75 -21 135 -125 109 -192 l-10 -26 -36 33 c-63
60 -150 59 -211 -1 -19 -20 -37 -34 -40 -31 -15 15 -15 82 0 121 20 52 42 73
93 92 47 16 49 16 95 4z m524 -6 c47 -22 76 -67 82 -125 7 -77 -1 -87 -43 -51
-76 67 -165 60 -232 -18 l-21 -25 -7 38 c-10 51 -1 101 24 136 41 57 129 77
197 45z m81 -605 c-12 -130 -119 -270 -244 -320 -82 -33 -224 -33 -306 0 -124
49 -228 183 -246 317 l-8 54 186 3 c102 1 284 3 405 5 l219 2 -6 -61z"/>
<path d="M4965 1400 c-119 -78 -63 -260 80 -260 110 0 176 106 129 206 -33 70
-142 98 -209 54z m136 -20 c27 -15 49 -62 49 -106 0 -51 -53 -104 -105 -104
-29 0 -45 8 -71 34 -29 29 -34 41 -34 81 0 64 39 105 100 105 23 0 50 -5 61
-10z"/>
<path d="M4990 1280 c0 -56 3 -70 15 -70 9 0 15 10 15 26 0 21 4 25 23 22 14
-2 23 -11 25 -25 2 -15 10 -23 23 -23 22 0 23 8 9 45 -7 18 -6 31 2 45 19 30
-6 50 -63 50 l-49 0 0 -70z m75 30 c0 -8 -10 -16 -22 -18 -22 -3 -32 16 -16
32 12 11 38 2 38 -14z"/>
<path d="M20 984 l0 -366 183 4 c177 3 184 4 240 31 72 36 106 83 114 159 7
72 -21 139 -71 168 l-34 21 24 25 c79 78 67 219 -23 278 -53 35 -121 46 -289
46 l-144 0 0 -366z m312 189 c22 -20 23 -51 2 -81 -13 -19 -24 -22 -80 -22
l-64 0 0 60 0 60 62 0 c43 0 67 -5 80 -17z m27 -279 c29 -36 26 -60 -9 -95
-27 -28 -34 -30 -92 -27 l-63 3 -3 73 -3 72 75 0 c69 0 76 -2 95 -26z"/>
<path d="M622 1043 c3 -288 4 -311 24 -347 28 -54 73 -76 156 -76 l68 0 0 75
c0 72 -1 75 -23 75 -46 0 -47 8 -47 302 l0 278 -91 0 -90 0 3 -307z"/>
<path d="M2015 1328 c3 -13 43 -176 88 -363 l83 -340 101 -3 101 -3 53 215 53
215 43 -177 c24 -97 48 -194 54 -214 l10 -38 98 0 c94 0 99 1 105 23 12 43
176 697 176 702 0 3 -40 5 -90 5 l-89 0 -10 -37 c-5 -21 -28 -123 -50 -228
-23 -104 -44 -201 -47 -215 -6 -25 -13 -1 -94 343 l-33 137 -71 0 -72 0 -59
-245 c-33 -135 -62 -245 -65 -245 -3 0 -27 110 -54 245 l-49 245 -94 0 c-92 0
-93 0 -88 -22z"/>
<path d="M3030 985 l0 -365 89 0 90 0 3 155 3 155 30 30 c41 40 86 49 114 21
20 -20 21 -32 21 -191 l0 -170 85 0 85 0 0 208 c0 183 -2 211 -19 242 -49 94
-193 116 -288 44 l-32 -25 -3 128 -3 128 -87 3 -88 3 0 -366z"/>
<path d="M4170 1047 c0 -294 1 -304 23 -347 29 -58 71 -80 155 -80 l62 0 0 74
c0 73 0 74 -29 79 -18 4 -31 14 -35 29 -3 13 -6 141 -6 286 l0 262 -85 0 -85
0 0 -303z"/>
<path d="M1691 1150 c-55 -12 -111 -48 -146 -95 -114 -149 -44 -380 131 -431
98 -28 236 -7 307 47 16 13 16 18 -15 75 l-33 62 -45 -24 c-30 -15 -62 -23
-98 -24 -48 0 -58 4 -88 34 -19 19 -34 39 -34 45 0 8 52 11 165 11 l165 0 0
63 c0 69 -30 146 -71 184 -52 47 -154 70 -238 53z m111 -147 c8 -10 18 -26 21
-35 6 -16 -2 -18 -74 -18 -86 0 -87 2 -46 48 25 27 77 30 99 5z"/>
<path d="M3782 1150 c-24 -5 -68 -20 -98 -34 l-55 -25 31 -61 c17 -33 32 -60
34 -60 3 0 25 9 51 20 56 24 127 26 149 4 31 -31 19 -41 -66 -53 -95 -13 -178
-49 -203 -88 -48 -73 -16 -180 65 -220 73 -37 167 -26 219 26 l21 21 0 -30 0
-30 80 0 80 0 0 178 c0 193 -7 235 -48 283 -49 59 -163 89 -260 69z m128 -324
c0 -55 -80 -104 -114 -71 -34 34 -17 66 44 83 58 17 70 15 70 -12z"/>
<path d="M4631 1150 c-200 -42 -270 -312 -120 -462 35 -35 61 -51 105 -64 100
-29 235 -8 307 48 18 14 18 17 -15 74 l-33 61 -45 -23 c-30 -16 -63 -24 -98
-24 -48 0 -58 4 -88 34 -19 19 -34 39 -34 45 0 8 52 11 165 11 l165 0 0 56 c0
76 -16 126 -56 173 -53 62 -156 91 -253 71z m111 -147 c8 -10 18 -26 21 -35 6
-16 -1 -18 -68 -18 -82 0 -90 7 -53 47 26 28 78 31 100 6z"/>
<path d="M912 938 c3 -188 5 -206 26 -246 50 -95 213 -111 299 -30 l23 21 0
-31 0 -32 85 0 85 0 0 260 0 260 -85 0 -85 0 0 -117 c0 -65 -5 -136 -10 -158
-17 -76 -103 -122 -143 -77 -14 16 -17 44 -17 185 l0 167 -91 0 -91 0 4 -202z"/>
</g>
</svg>
